Coordinates
version=1
nRows=10
nColumns=40
inDegrees=yes

Units are S.I. units (second, meters, Newtons, ...)
Angles are in degrees.

endheader
time	pelvis_tilt	pelvis_list	pelvis_rotation	pelvis_tx	pelvis_ty	pelvis_tz	hip_flexion_r	hip_adduction_r	hip_rotation_r	knee_angle_r	knee_angle_r_beta	ankle_angle_r	subtalar_angle_r	mtp_angle_r	hip_flexion_l	hip_adduction_l	hip_rotation_l	knee_angle_l	knee_angle_l_beta	ankle_angle_l	subtalar_angle_l	mtp_angle_l	lumbar_extension	lumbar_bending	lumbar_rotation	arm_flex_r	arm_add_r	arm_rot_r	elbow_flex_r	pro_sup_r	wrist_flex_r	wrist_dev_r	arm_flex_l	arm_add_l	arm_rot_l	elbow_flex_l	pro_sup_l	wrist_flex_l	wrist_dev_l
      3.98000000	     -5.58386565	     -3.62132007	      5.01904854	      0.93888281	      0.92122357	      0.44797187	      1.90024257	     -4.01229448	    -16.27741065	     31.66396085	     31.66396085	     11.31697082	     -4.58187513	    -14.40067514	     26.98279243	     -1.65140571	      0.09132440	     26.50952350	     26.50952350	      8.39555502	    -15.58478281	      8.99529649	     -6.65139260	      4.08000804	      4.75855704	     24.85468998	    -12.85689792	     -2.70655139	     82.11909866	     44.60693593	      0.00000000	      0.00000000	     -0.63941983	     -7.46762681	     -2.28048738	     32.54296746	     44.85496532	      0.00000000	      0.00000000
      3.99285714	     -5.59747116	     -3.52363955	      4.73374160	      0.93938762	      0.92237066	      0.44521848	      3.53554607	     -4.91312854	    -15.40660474	     35.36397591	     35.36397591	      9.53650955	     -5.86366310	    -15.16956454	     26.19514725	     -1.56303481	     -0.39931435	     26.24613918	     26.24613918	      8.93183238	    -15.27485191	      8.73886375	     -6.71915371	      4.15476687	      5.23610667	     23.30405316	    -13.09896196	     -2.85069258	     78.96274724	     44.71572105	      0.00000000	      0.00000000	      0.29502859	     -7.55582771	     -2.40853451	     33.77858440	     44.89629837	      0.00000000	      0.00000000
      4.00571429	     -5.58714892	     -3.63622039	      4.47557269	      0.93980560	      0.92345989	      0.44289237	      5.17864098	     -5.33999962	    -14.21591033	     38.77896430	     38.77896430	      6.90887949	     -8.16174301	    -17.20648859	     25.41754976	     -1.74036733	     -0.87251843	     25.98182946	     25.98182946	      9.41478057	    -14.71799002	      8.06751046	     -6.63729878	      4.34647047	      4.05783881	     24.11243359	    -11.38792559	     -3.33204307	     70.67937855	     45.03577382	      0.00000000	      0.00000000	     -0.54893802	     -8.17317547	     -2.57390433	     37.35427777	     44.97750065	      0.00000000	      0.00000000
      4.01857143	     -5.61086825	     -3.51276748	      4.17292580	      0.93994878	      0.92419928	      0.44050835	      7.15909092	     -6.13942599	    -13.15334942	     42.72027692	     42.72027692	      5.17432183	     -9.29624791	    -17.05588467	     24.65388291	     -1.65612237	     -1.43570797	     25.69733786	     25.69733786	      9.90639083	    -14.30739607	      7.74729506	     -6.73206005	      4.33461153	      4.61181416	     22.42515178	    -11.92933859	     -3.20881472	     68.25648994	     45.10944596	      0.00000000	      0.00000000	      0.49493181	     -8.31405234	     -2.74680929	     38.61364234	     45.02754837	      0.00000000	      0.00000000
      4.03142857	     -5.58185756	     -3.57890478	      3.90150806	      0.93987445	      0.92486684	      0.43847691	      9.22804081	     -6.52165128	    -11.93000343	     46.67472126	     46.67472126	      4.14304822	    -10.30134776	    -14.38425943	     23.93777551	     -1.84124967	     -2.09101233	     25.52536999	     25.52536999	     10.30292635	    -13.58184918	      6.74369940	     -6.77179306	      4.47956665	      3.82449497	     22.89080650	    -11.03012709	     -3.19396106	     60.94850886	     45.37019088	      0.00000000	      0.00000000	      0.05350073	     -8.97320921	     -2.81134077	     42.27668069	     45.13463354	      0.00000000	      0.00000000
      4.04428571	     -5.58818672	     -3.53850689	      3.63428009	      0.93959218	      0.92534155	      0.43657684	     11.43639710	     -6.96127432	    -10.76222524	     50.59006703	     50.59006703	      3.42979989	    -10.98363397	    -11.37149642	     23.25411860	     -1.91468774	     -2.79962423	     25.33875106	     25.33875106	     10.76256344	    -12.81364434	      6.01620642	     -6.86246055	      4.50356649	      3.64800178	     22.26872851	    -10.90961848	     -3.02699462	     56.27761742	     45.52334005	      0.00000000	      0.00000000	      0.46998536	     -9.43163924	     -2.99403627	     44.60278984	     45.26034762	      0.00000000	      0.00000000
      4.05714286	     -5.62431120	     -3.41119280	      3.37793986	      0.93911011	      0.92572694	      0.43476161	     13.63523790	     -7.43503375	     -9.70501281	     54.11132835	     54.11132835	      2.16577187	    -11.96952355	    -10.70427178	     22.56934650	     -1.83092792	     -3.33185712	     25.07184878	     25.07184878	     11.24436048	    -12.33129198	      5.71782461	     -6.98221557	      4.40378606	      4.00781859	     20.49356274	    -11.40737884	     -2.94899372	     54.28013195	     45.58174765	      0.00000000	      0.00000000	      1.67387818	     -9.66101906	     -3.18237850	     45.73113408	     45.31247178	      0.00000000	      0.00000000
      4.07000000	     -5.57643651	     -3.47243338	      3.17183477	      0.93847296	      0.92619547	      0.43326558	     15.85738096	     -7.56130718	     -8.73832670	     57.63337975	     57.63337975	      2.69254550	    -12.05589038	     -5.57300995	     21.92863568	     -2.08106945	     -4.17402524	     25.00583325	     25.00583325	     11.72565322	    -11.15754815	      4.84319001	     -7.10876804	      4.52418257	      3.48222524	     20.63594890	    -10.95434081	     -3.05384009	     47.73075067	     45.81064430	      0.00000000	      0.00000000	      1.81968777	    -10.42861048	     -2.93940842	     48.66642392	     45.40115168	      0.00000000	      0.00000000
      4.08285714	     -5.62221944	     -3.36382110	      2.98211286	      0.93765905	      0.92662624	      0.43178954	     18.03558418	     -7.86317666	     -7.95471556	     60.52999437	     60.52999437	      1.94407534	    -12.93219082	     -5.14925175	     21.25480769	     -1.99459121	     -4.60097408	     24.67066400	     24.67066400	     12.13825660	    -10.70341873	      4.63515823	     -7.22078273	      4.44186039	      3.70507846	     18.73673333	    -11.44144449	     -2.94062088	     46.05511342	     45.85453520	      0.00000000	      0.00000000	      3.07017777	    -10.68883775	     -3.21920404	     49.73548285	     45.46058771	      0.00000000	      0.00000000
      4.09571429	     -5.62834458	     -3.37065629	      2.83506046	      0.93674015	      0.92726361	      0.43052689	     20.09404714	     -7.93138572	     -7.29377877	     62.98034969	     62.98034969	      1.57112743	    -13.71599186	     -4.32381941	     20.59122176	     -2.08565494	     -5.13936295	     24.40163909	     24.40163909	     12.53319903	     -9.90070691	      4.29992473	     -7.37524633	      4.45599466	      4.04126055	     16.90791306	    -12.01515450	     -2.80632068	     43.65490699	     45.92458598	      0.00000000	      0.00000000	      4.40613349	    -10.94095224	     -3.42622355	     51.17920738	     45.52065292	      0.00000000	      0.00000000
